<svg width="17" height="16" viewBox="0 0 17 16" fill="none" xmlns="http://www.w3.org/2000/svg">
<path d="M2.08934 15.8333C1.81716 15.8333 1.58902 15.7385 1.4049 15.5488C1.22078 15.3592 1.12872 15.1241 1.12872 14.8437V9.89583H0.960615C0.65642 9.89583 0.408261 9.77626 0.216138 9.53711C0.0240154 9.29796 -0.0400256 9.0217 0.0240154 8.70833L0.98463 3.76042C1.03266 3.52951 1.14473 3.33984 1.32085 3.19141C1.49696 3.04297 1.69709 2.96875 1.92123 2.96875H14.7454C14.9696 2.96875 15.1697 3.04297 15.3458 3.19141C15.5219 3.33984 15.634 3.52951 15.682 3.76042L16.6427 8.70833C16.7067 9.0217 16.6427 9.29796 16.4505 9.53711C16.2584 9.77626 16.0102 9.89583 15.7061 9.89583H15.5379V14.8437C15.5379 15.1241 15.4459 15.3592 15.2618 15.5488C15.0776 15.7385 14.8495 15.8333 14.5773 15.8333C14.3052 15.8333 14.077 15.7385 13.8929 15.5488C13.7088 15.3592 13.6167 15.1241 13.6167 14.8437V9.89583H9.77426V14.8437C9.77426 15.1241 9.6822 15.3592 9.49808 15.5488C9.31396 15.7385 9.08581 15.8333 8.81364 15.8333H2.08934ZM3.04995 13.8542H7.85303V9.89583H3.04995V13.8542ZM2.08934 1.97917C1.81716 1.97917 1.58902 1.88433 1.4049 1.69466C1.22078 1.50499 1.12872 1.26997 1.12872 0.989583C1.12872 0.709201 1.22078 0.474175 1.4049 0.284505C1.58902 0.0948351 1.81716 0 2.08934 0H14.5773C14.8495 0 15.0776 0.0948351 15.2618 0.284505C15.4459 0.474175 15.5379 0.709201 15.5379 0.989583C15.5379 1.26997 15.4459 1.50499 15.2618 1.69466C15.0776 1.88433 14.8495 1.97917 14.5773 1.97917H2.08934Z" fill="#222222"/>
</svg>
