<svg width="24" height="24" viewBox="0 0 24 24" fill="none" xmlns="http://www.w3.org/2000/svg">
<mask id="mask0_40000634_44994" style="mask-type:alpha" maskUnits="userSpaceOnUse" x="0" y="0" width="24" height="24">
<rect width="24" height="24" fill="#D9D9D9"/>
</mask>
<g mask="url(#mask0_40000634_44994)">
<path d="M17.9107 9.75006H9.80775C9.71792 9.75006 9.64417 9.77889 9.5865 9.83656C9.52883 9.89423 9.5 9.96798 9.5 10.0578V15.2501C9.5 15.4629 9.42817 15.6411 9.2845 15.7846C9.141 15.9282 8.96283 16.0001 8.75 16.0001C8.53717 16.0001 8.359 15.9282 8.2155 15.7846C8.07183 15.6411 8 15.4629 8 15.2501V10.0578C8 9.55914 8.17658 9.13314 8.52975 8.77981C8.88308 8.42664 9.30908 8.25006 9.80775 8.25006H17.9107L14.7567 5.09631C14.6081 4.94748 14.5296 4.77081 14.5212 4.56631C14.5129 4.36198 14.5863 4.18223 14.7415 4.02706C14.8967 3.87189 15.0748 3.79431 15.276 3.79431C15.4773 3.79431 15.6556 3.87189 15.8107 4.02706L20.151 8.36731C20.2447 8.46098 20.3107 8.55973 20.349 8.66356C20.3875 8.76739 20.4067 8.87956 20.4067 9.00006C20.4067 9.12056 20.3875 9.23273 20.349 9.33656C20.3107 9.44039 20.2447 9.53914 20.151 9.63281L15.7952 13.9886C15.6466 14.1372 15.4726 14.2106 15.2732 14.2086C15.0739 14.2067 14.8967 14.1282 14.7415 13.9731C14.5967 13.8179 14.5217 13.6423 14.5165 13.4463C14.5113 13.2501 14.5863 13.0745 14.7415 12.9193L17.9107 9.75006Z" fill="#222222"/>
<path d="M5.30775 20.5C4.80258 20.5 4.375 20.325 4.025 19.975C3.675 19.625 3.5 19.1974 3.5 18.6923V5.30776C3.5 4.80259 3.675 4.37501 4.025 4.02501C4.375 3.67501 4.80258 3.50001 5.30775 3.50001L8.25 3.5C8.46283 3.5 8.64108 3.57183 8.78475 3.7155C8.92825 3.859 9 4.03717 9 4.25C9 4.46283 8.92825 4.641 8.78475 4.7845C8.64108 4.92817 8.46283 5 8.25 5L5.30775 5.00001C5.23075 5.00001 5.16025 5.03209 5.09625 5.09626C5.03208 5.16026 5 5.23076 5 5.30776V18.6923C5 18.7693 5.03208 18.8398 5.09625 18.9038C5.16025 18.9679 5.23075 19 5.30775 19H18.6923C18.7692 19 18.8398 18.9679 18.9038 18.9038C18.9679 18.8398 19 18.7693 19 18.6923V15.75C19 15.5372 19.0718 15.3589 19.2155 15.2153C19.359 15.0718 19.5372 15 19.75 15C19.9628 15 20.141 15.0718 20.2845 15.2153C20.4282 15.3589 20.5 15.5372 20.5 15.75V18.6923C20.5 19.1974 20.325 19.625 19.975 19.975C19.625 20.325 19.1974 20.5 18.6923 20.5H5.30775Z" fill="#222222"/>
</g>
</svg>
