<svg width="24" height="24" viewBox="0 0 24 24" fill="none" xmlns="http://www.w3.org/2000/svg">
<mask id="mask0_40000204_74546" style="mask-type:alpha" maskUnits="userSpaceOnUse" x="0" y="0" width="24" height="24">
<rect width="24" height="24" fill="#D9D9D9"/>
</mask>
<g mask="url(#mask0_40000204_74546)">
<path d="M2.5 18.596V10.0385C2.5 9.53333 2.675 9.10575 3.025 8.75575C3.375 8.40575 3.80258 8.23075 4.30775 8.23075H7.25V6.30775C7.25 5.80258 7.425 5.375 7.775 5.025C8.125 4.675 8.55258 4.5 9.05775 4.5H14.9423C15.4474 4.5 15.875 4.675 16.225 5.025C16.575 5.375 16.75 5.80258 16.75 6.30775V8.23075H19.6923C20.1974 8.23075 20.625 8.40575 20.975 8.75575C21.325 9.10575 21.5 9.53333 21.5 10.0385V18.596C21.5 18.8522 21.4133 19.0668 21.24 19.24C21.0668 19.4133 20.8522 19.5 20.596 19.5H3.404C3.14783 19.5 2.93317 19.4133 2.76 19.24C2.58667 19.0668 2.5 18.8522 2.5 18.596ZM7.69225 14.6152V14.8652C7.69225 15.0777 7.62033 15.2559 7.4765 15.3997C7.33267 15.5434 7.1545 15.6152 6.942 15.6152C6.72933 15.6152 6.55125 15.5434 6.40775 15.3997C6.26408 15.2559 6.19225 15.0777 6.19225 14.8652V14.6152H4V18H20V14.6152H17.8077V14.8652C17.8077 15.0777 17.7358 15.2559 17.592 15.3997C17.4482 15.5434 17.2699 15.6152 17.0573 15.6152C16.8448 15.6152 16.6667 15.5434 16.523 15.3997C16.3795 15.2559 16.3077 15.0777 16.3077 14.8652V14.6152H7.69225ZM4 10.0385V13.1155H6.19225V12.8652C6.19225 12.6529 6.26417 12.4748 6.408 12.331C6.55183 12.1873 6.73008 12.1155 6.94275 12.1155C7.15525 12.1155 7.33333 12.1873 7.477 12.331C7.6205 12.4748 7.69225 12.6529 7.69225 12.8652V13.1155H16.3077V12.8652C16.3077 12.6529 16.3797 12.4748 16.5235 12.331C16.6673 12.1873 16.8455 12.1155 17.058 12.1155C17.2707 12.1155 17.4487 12.1873 17.5922 12.331C17.7359 12.4748 17.8077 12.6529 17.8077 12.8652V13.1155H20V10.0385C20 9.9615 19.9679 9.891 19.9038 9.827C19.8398 9.76283 19.7693 9.73075 19.6923 9.73075H4.30775C4.23075 9.73075 4.16025 9.76283 4.09625 9.827C4.03208 9.891 4 9.9615 4 10.0385ZM8.75 8.23075H15.25V6.30775C15.25 6.23075 15.2179 6.16025 15.1538 6.09625C15.0898 6.03208 15.0192 6 14.9423 6H9.05775C8.98075 6 8.91025 6.03208 8.84625 6.09625C8.78208 6.16025 8.75 6.23075 8.75 6.30775V8.23075Z" fill="#222222"/>
</g>
</svg>
