<svg width="19" height="18" viewBox="0 0 19 18" fill="none" xmlns="http://www.w3.org/2000/svg">
<path d="M9.5 12.2115C9.732 12.2115 9.92458 12.1349 10.0778 11.9817C10.2311 11.8286 10.3077 11.6359 10.3077 11.4038C10.3077 11.1718 10.2311 10.9792 10.0778 10.826C9.92458 10.6728 9.732 10.5963 9.5 10.5963C9.268 10.5963 9.07542 10.6728 8.92225 10.826C8.76892 10.9792 8.69225 11.1718 8.69225 11.4038C8.69225 11.6359 8.76892 11.8286 8.92225 11.9817C9.07542 12.1349 9.268 12.2115 9.5 12.2115ZM9.5 8.73075C9.71283 8.73075 9.891 8.659 10.0345 8.5155C10.1782 8.37183 10.25 8.19358 10.25 7.98075V3.44225C10.25 3.22942 10.1782 3.05125 10.0345 2.90775C9.891 2.76408 9.71283 2.69225 9.5 2.69225C9.28717 2.69225 9.109 2.76408 8.9655 2.90775C8.82183 3.05125 8.75 3.22942 8.75 3.44225V7.98075C8.75 8.19358 8.82183 8.37183 8.9655 8.5155C9.109 8.659 9.28717 8.73075 9.5 8.73075ZM3.5385 15L1.5365 17.0018C1.252 17.2864 0.92475 17.3509 0.55475 17.1952C0.184917 17.0394 0 16.7589 0 16.3538V1.80775C0 1.30258 0.175 0.875 0.525 0.525C0.875 0.175 1.30258 0 1.80775 0H17.1923C17.6974 0 18.125 0.175 18.475 0.525C18.825 0.875 19 1.30258 19 1.80775V13.1923C19 13.6974 18.825 14.125 18.475 14.475C18.125 14.825 17.6974 15 17.1923 15H3.5385ZM2.9 13.5H17.1923C17.2693 13.5 17.3398 13.4679 17.4038 13.4038C17.4679 13.3398 17.5 13.2692 17.5 13.1923V1.80775C17.5 1.73075 17.4679 1.66025 17.4038 1.59625C17.3398 1.53208 17.2693 1.5 17.1923 1.5H1.80775C1.73075 1.5 1.66025 1.53208 1.59625 1.59625C1.53208 1.66025 1.5 1.73075 1.5 1.80775V14.8848L2.9 13.5Z" fill="#555555"/>
</svg>
