<svg width="18" height="16" viewBox="0 0 18 16" fill="none" xmlns="http://www.w3.org/2000/svg">
<path d="M14.6538 15.3075C13.7169 15.3075 12.925 14.9841 12.278 14.3372C11.6312 13.6902 11.3077 12.8983 11.3077 11.9615C11.3077 11.0245 11.6312 10.2326 12.278 9.58575C12.925 8.93875 13.7169 8.61525 14.6538 8.61525C15.5908 8.61525 16.3827 8.93875 17.0295 9.58575C17.6765 10.2326 18 11.0245 18 11.9615C18 12.8983 17.6765 13.6902 17.0295 14.3372C16.3827 14.9841 15.5908 15.3075 14.6538 15.3075ZM14.6528 13.8075C15.1624 13.8075 15.5977 13.6274 15.9587 13.2673C16.3196 12.9069 16.5 12.472 16.5 11.9625C16.5 11.4528 16.3198 11.0175 15.9595 10.6565C15.5993 10.2957 15.1644 10.1153 14.6547 10.1153C14.1451 10.1153 13.7098 10.2954 13.349 10.6558C12.9882 11.0159 12.8077 11.4508 12.8077 11.9605C12.8077 12.4702 12.9878 12.9054 13.348 13.2663C13.7083 13.6271 14.1433 13.8075 14.6528 13.8075ZM8.3655 12.7115H2.25C2.0375 12.7115 1.85942 12.6396 1.71575 12.4958C1.57192 12.3519 1.5 12.1737 1.5 11.961C1.5 11.7485 1.57192 11.5704 1.71575 11.4268C1.85942 11.2833 2.0375 11.2115 2.25 11.2115H8.3655C8.578 11.2115 8.75608 11.2834 8.89975 11.4273C9.04358 11.5711 9.1155 11.7493 9.1155 11.9618C9.1155 12.1744 9.04358 12.3525 8.89975 12.496C8.75608 12.6397 8.578 12.7115 8.3655 12.7115ZM3.34625 6.69225C2.40925 6.69225 1.61733 6.36875 0.9705 5.72175C0.3235 5.07492 0 4.283 0 3.346C0 2.40917 0.3235 1.61725 0.9705 0.97025C1.61733 0.323417 2.40925 0 3.34625 0C4.28308 0 5.075 0.323417 5.722 0.97025C6.36883 1.61725 6.69225 2.40917 6.69225 3.346C6.69225 4.283 6.36883 5.07492 5.722 5.72175C5.075 6.36875 4.28308 6.69225 3.34625 6.69225ZM3.34525 5.19225C3.85492 5.19225 4.29017 5.01208 4.651 4.65175C5.01183 4.29158 5.19225 3.85667 5.19225 3.347C5.19225 2.83733 5.01217 2.40208 4.652 2.04125C4.29167 1.68042 3.85675 1.5 3.34725 1.5C2.83758 1.5 2.40225 1.68008 2.04125 2.04025C1.68042 2.40058 1.5 2.8355 1.5 3.345C1.5 3.85467 1.68017 4.29 2.0405 4.651C2.40067 5.01183 2.83558 5.19225 3.34525 5.19225ZM15.75 4.096H9.6345C9.422 4.096 9.24392 4.02408 9.10025 3.88025C8.95642 3.73642 8.8845 3.55825 8.8845 3.34575C8.8845 3.13308 8.95642 2.955 9.10025 2.8115C9.24392 2.66783 9.422 2.596 9.6345 2.596H15.75C15.9625 2.596 16.1406 2.66792 16.2843 2.81175C16.4281 2.95558 16.5 3.13383 16.5 3.3465C16.5 3.559 16.4281 3.73708 16.2843 3.88075C16.1406 4.02425 15.9625 4.096 15.75 4.096Z" fill="#222222"/>
</svg>
