<svg width="19" height="19" viewBox="0 0 19 19" fill="none" xmlns="http://www.w3.org/2000/svg">
<path d="M6.30775 1.5H12.423C12.5128 1.5 12.5866 1.52883 12.6442 1.5865C12.7019 1.64417 12.7308 1.71783 12.7308 1.8075V8.625H6.30775V1.5ZM1.80775 1.5H4.80775V8.625H1.80775C1.71791 8.625 1.64417 8.59775 1.5865 8.54325C1.52883 8.48875 1.5 8.41658 1.5 8.32675V1.8075C1.5 1.71783 1.52883 1.64417 1.5865 1.5865C1.64417 1.52883 1.71791 1.5 1.80775 1.5ZM6.577 10.1248H13.6155V16.1152H7.95C7.6 16.1152 7.2625 16.0569 6.9375 15.9402C6.6125 15.8236 6.31667 15.6486 6.05 15.4152L1.9 11.9902C2.059 11.8249 2.23625 11.7009 2.43175 11.6182C2.62725 11.5354 2.83267 11.4773 3.048 11.444C3.325 11.4068 3.59525 11.4233 3.85875 11.4932C4.12208 11.5631 4.37042 11.6897 4.60375 11.873L6.35 13.271C6.51417 13.3978 6.68917 13.4966 6.875 13.5672C7.06083 13.6377 7.26083 13.673 7.475 13.673H10.4808C10.6936 13.673 10.8717 13.6012 11.0152 13.4575C11.1589 13.314 11.2308 13.1358 11.2308 12.923C11.2308 12.7102 11.1589 12.5319 11.0152 12.3883C10.8717 12.2448 10.6936 12.173 10.4808 12.173H7.36925L6.18275 11.2057C6.09292 11.1429 6.02875 11.0634 5.99025 10.9672C5.95192 10.8711 5.94233 10.7666 5.9615 10.6538C5.98067 10.4999 6.04958 10.3733 6.16825 10.274C6.28675 10.1745 6.423 10.1248 6.577 10.1248ZM15.1152 10.1152H17.1923C17.2821 10.1152 17.3558 10.1441 17.4135 10.2017C17.4712 10.2594 17.5 10.3332 17.5 10.423V16.8075C17.5 16.8973 17.4712 16.9711 17.4135 17.0287C17.3558 17.0864 17.2821 17.1152 17.1923 17.1152H15.423C15.3333 17.1152 15.2597 17.0864 15.202 17.0287C15.1442 16.9711 15.1152 16.8973 15.1152 16.8075V10.1152ZM14.2308 10.1248V1.8075C14.2308 1.3025 14.0557 0.875 13.7057 0.525C13.3558 0.175 12.9282 0 12.423 0H1.80775C1.30258 0 0.875 0.175 0.525 0.525C0.174999 0.875 0 1.3025 0 1.8075V8.31725C0 8.82242 0.174999 9.24992 0.525 9.59975C0.875 9.94975 1.30258 10.1248 1.80775 10.1248H14.2308ZM15.423 18.6248H17.1923C17.6974 18.6248 18.125 18.4498 18.475 18.0998C18.825 17.7498 19 17.3223 19 16.8173V10.4325C19 9.9275 18.825 9.5 18.475 9.15C18.125 8.8 17.6974 8.625 17.1923 8.625H6.5865C5.38783 8.625 4.24075 8.84583 3.14525 9.2875C2.04975 9.72917 1.14367 10.4256 0.427 11.3767C0.262833 11.6024 0.199333 11.8572 0.2365 12.1412C0.273666 12.4253 0.403166 12.6647 0.625 12.8595L5.077 16.5903C5.48217 16.9287 5.9325 17.1857 6.428 17.3612C6.9235 17.5369 7.43083 17.6248 7.95 17.6248H13.8135C13.9648 17.9247 14.1824 18.1664 14.4662 18.3498C14.7502 18.5331 15.0692 18.6248 15.423 18.6248Z" fill="#222222"/>
</svg>
