<svg width="24" height="24" viewBox="0 0 24 24" fill="none" xmlns="http://www.w3.org/2000/svg">
<path d="M11.9905 20.1047C11.7763 20.1047 11.5612 20.0662 11.3453 19.9894C11.1293 19.9124 10.9392 19.7919 10.775 19.6279L9.3385 18.3222C7.5655 16.7055 5.9825 15.1173 4.5895 13.5577C3.1965 11.998 2.5 10.3272 2.5 8.54517C2.5 7.126 2.9785 5.93783 3.9355 4.98067C4.89267 4.02367 6.08083 3.54517 7.5 3.54517C8.30633 3.54517 9.10283 3.73108 9.8895 4.10292C10.676 4.47475 11.3795 5.07858 12 5.91442C12.6205 5.07858 13.324 4.47475 14.1105 4.10292C14.8972 3.73108 15.6937 3.54517 16.5 3.54517C17.9192 3.54517 19.1073 4.02367 20.0645 4.98067C21.0215 5.93783 21.5 7.126 21.5 8.54517C21.5 10.3465 20.7917 12.0359 19.375 13.6134C17.9583 15.1909 16.3788 16.7656 14.6365 18.3374L13.2153 19.6279C13.0513 19.7919 12.8597 19.9124 12.6405 19.9894C12.4212 20.0662 12.2045 20.1047 11.9905 20.1047ZM11.2808 7.43367C10.7397 6.60933 10.1702 6.00517 9.572 5.62117C8.974 5.23717 8.28333 5.04517 7.5 5.04517C6.5 5.04517 5.66667 5.3785 5 6.04517C4.33333 6.71183 4 7.54517 4 8.54517C4 9.34767 4.25867 10.1867 4.776 11.0624C5.29333 11.9381 5.94267 12.8086 6.724 13.6739C7.50533 14.5394 8.35183 15.3849 9.2635 16.2104C10.175 17.0361 11.0198 17.8034 11.798 18.5124C11.8557 18.5637 11.923 18.5894 12 18.5894C12.077 18.5894 12.1443 18.5637 12.202 18.5124C12.9802 17.8034 13.825 17.0361 14.7365 16.2104C15.6482 15.3849 16.4947 14.5394 17.276 13.6739C18.0573 12.8086 18.7067 11.9381 19.224 11.0624C19.7413 10.1867 20 9.34767 20 8.54517C20 7.54517 19.6667 6.71183 19 6.04517C18.3333 5.3785 17.5 5.04517 16.5 5.04517C15.7167 5.04517 15.026 5.23717 14.428 5.62117C13.8298 6.00517 13.2603 6.60933 12.7192 7.43367C12.6346 7.56183 12.5282 7.658 12.4 7.72217C12.2718 7.78617 12.1385 7.81817 12 7.81817C11.8615 7.81817 11.7282 7.78617 11.6 7.72217C11.4718 7.658 11.3654 7.56183 11.2808 7.43367Z" fill="#222222"/>
</svg>
