<svg width="19" height="19" viewBox="0 0 19 19" fill="none" xmlns="http://www.w3.org/2000/svg">
<path d="M9.489 15.1152C9.7745 15.1152 10.0157 15.0168 10.2125 14.8198C10.4093 14.6226 10.5078 14.3812 10.5078 14.0955C10.5078 13.81 10.4092 13.5688 10.212 13.372C10.0148 13.1753 9.7735 13.077 9.488 13.077C9.2025 13.077 8.96133 13.1756 8.7645 13.3728C8.56767 13.5699 8.46925 13.8113 8.46925 14.0968C8.46925 14.3822 8.56783 14.6234 8.765 14.8203C8.96217 15.0169 9.2035 15.1152 9.489 15.1152ZM9.50175 19C8.18775 19 6.95267 18.7507 5.7965 18.252C4.64033 17.7533 3.63467 17.0766 2.7795 16.2218C1.92433 15.3669 1.24725 14.3617 0.74825 13.206C0.249417 12.0503 0 10.8156 0 9.50175C0 8.18775 0.249333 6.95267 0.748 5.7965C1.24667 4.64033 1.92342 3.63467 2.77825 2.7795C3.63308 1.92433 4.63833 1.24725 5.794 0.74825C6.94967 0.249417 8.18442 0 9.49825 0C10.8123 0 12.0473 0.249333 13.2035 0.748C14.3597 1.24667 15.3653 1.92342 16.2205 2.77825C17.0757 3.63308 17.7528 4.63833 18.2518 5.794C18.7506 6.94967 19 8.18442 19 9.49825C19 10.8123 18.7507 12.0473 18.252 13.2035C17.7533 14.3597 17.0766 15.3653 16.2218 16.2205C15.3669 17.0757 14.3617 17.7528 13.206 18.2518C12.0503 18.7506 10.8156 19 9.50175 19ZM9.5 17.5C11.7333 17.5 13.625 16.725 15.175 15.175C16.725 13.625 17.5 11.7333 17.5 9.5C17.5 7.26667 16.725 5.375 15.175 3.825C13.625 2.275 11.7333 1.5 9.5 1.5C7.26667 1.5 5.375 2.275 3.825 3.825C2.275 5.375 1.5 7.26667 1.5 9.5C1.5 11.7333 2.275 13.625 3.825 15.175C5.375 16.725 7.26667 17.5 9.5 17.5ZM9.581 5.21925C10.0423 5.21925 10.4416 5.3645 10.7788 5.655C11.1161 5.9455 11.2848 6.30858 11.2848 6.74425C11.2848 7.11092 11.177 7.43908 10.9615 7.72875C10.7462 8.01858 10.5 8.2885 10.223 8.5385C9.86 8.8605 9.54042 9.21475 9.26425 9.60125C8.98808 9.98758 8.84042 10.4179 8.82125 10.8923C8.81475 11.0744 8.87883 11.227 9.0135 11.35C9.14817 11.473 9.30517 11.5345 9.4845 11.5345C9.67683 11.5345 9.83967 11.4704 9.973 11.3422C10.1063 11.2141 10.1916 11.0571 10.2288 10.8713C10.2954 10.5276 10.4374 10.2215 10.6547 9.953C10.8721 9.68433 11.1075 9.42892 11.361 9.18675C11.7255 8.83142 12.0436 8.44408 12.3152 8.02475C12.5871 7.60525 12.723 7.13742 12.723 6.62125C12.723 5.82892 12.4108 5.17792 11.7865 4.66825C11.1622 4.15875 10.4333 3.904 9.6 3.904C9.00517 3.904 8.44425 4.03567 7.91725 4.299C7.39042 4.5625 6.98017 4.94683 6.6865 5.452C6.5955 5.60717 6.56633 5.77042 6.599 5.94175C6.6315 6.11325 6.71942 6.24342 6.86275 6.33225C7.04525 6.43375 7.23267 6.46275 7.425 6.41925C7.61733 6.37558 7.78075 6.266 7.91525 6.0905C8.11792 5.82767 8.36317 5.61675 8.651 5.45775C8.93883 5.29875 9.24883 5.21925 9.581 5.21925Z" fill="#222222"/>
</svg>
