<svg width="19" height="13" viewBox="0 0 19 13" fill="none" xmlns="http://www.w3.org/2000/svg">
<path d="M1.80775 13C1.30258 13 0.875 12.825 0.525 12.475C0.175 12.125 0 11.6974 0 11.1923V1.80775C0 1.30258 0.175 0.875 0.525 0.525C0.875 0.175 1.30258 0 1.80775 0H17.1923C17.6974 0 18.125 0.175 18.475 0.525C18.825 0.875 19 1.30258 19 1.80775V11.1923C19 11.6974 18.825 12.125 18.475 12.475C18.125 12.825 17.6974 13 17.1923 13H1.80775ZM1.80775 11.5H17.1923C17.2693 11.5 17.3398 11.4679 17.4038 11.4038C17.4679 11.3398 17.5 11.2692 17.5 11.1923V1.80775C17.5 1.73075 17.4679 1.66025 17.4038 1.59625C17.3398 1.53208 17.2693 1.5 17.1923 1.5H1.80775C1.73075 1.5 1.66025 1.53208 1.59625 1.59625C1.53208 1.66025 1.5 1.73075 1.5 1.80775V11.1923C1.5 11.2692 1.53208 11.3398 1.59625 11.4038C1.66025 11.4679 1.73075 11.5 1.80775 11.5ZM6.5 10.3845H12.5C12.7448 10.3845 12.9535 10.2999 13.126 10.1308C13.2983 9.96158 13.3845 9.75133 13.3845 9.5C13.3845 9.25517 13.2983 9.0465 13.126 8.874C12.9535 8.70167 12.7448 8.6155 12.5 8.6155H6.5C6.25517 8.6155 6.0465 8.70008 5.874 8.86925C5.70167 9.03842 5.6155 9.24867 5.6155 9.5C5.6155 9.74483 5.70167 9.9535 5.874 10.126C6.0465 10.2983 6.25517 10.3845 6.5 10.3845ZM3.5 4.3845C3.74483 4.3845 3.9535 4.29833 4.126 4.126C4.29833 3.9535 4.3845 3.74483 4.3845 3.5C4.3845 3.25517 4.29833 3.0465 4.126 2.874C3.9535 2.70167 3.74483 2.6155 3.5 2.6155C3.25517 2.6155 3.0465 2.70167 2.874 2.874C2.70167 3.0465 2.6155 3.25517 2.6155 3.5C2.6155 3.74483 2.70167 3.9535 2.874 4.126C3.0465 4.29833 3.25517 4.3845 3.5 4.3845ZM6.5 4.3845C6.74483 4.3845 6.9535 4.29833 7.126 4.126C7.29833 3.9535 7.3845 3.74483 7.3845 3.5C7.3845 3.25517 7.29833 3.0465 7.126 2.874C6.9535 2.70167 6.74483 2.6155 6.5 2.6155C6.25517 2.6155 6.0465 2.70167 5.874 2.874C5.70167 3.0465 5.6155 3.25517 5.6155 3.5C5.6155 3.74483 5.70167 3.9535 5.874 4.126C6.0465 4.29833 6.25517 4.3845 6.5 4.3845ZM9.5 4.3845C9.74483 4.3845 9.9535 4.29833 10.126 4.126C10.2983 3.9535 10.3845 3.74483 10.3845 3.5C10.3845 3.25517 10.2983 3.0465 10.126 2.874C9.9535 2.70167 9.74483 2.6155 9.5 2.6155C9.25517 2.6155 9.0465 2.70167 8.874 2.874C8.70167 3.0465 8.6155 3.25517 8.6155 3.5C8.6155 3.74483 8.70167 3.9535 8.874 4.126C9.0465 4.29833 9.25517 4.3845 9.5 4.3845ZM12.5 4.3845C12.7448 4.3845 12.9535 4.29833 13.126 4.126C13.2983 3.9535 13.3845 3.74483 13.3845 3.5C13.3845 3.25517 13.2983 3.0465 13.126 2.874C12.9535 2.70167 12.7448 2.6155 12.5 2.6155C12.2552 2.6155 12.0465 2.70167 11.874 2.874C11.7017 3.0465 11.6155 3.25517 11.6155 3.5C11.6155 3.74483 11.7017 3.9535 11.874 4.126C12.0465 4.29833 12.2552 4.3845 12.5 4.3845ZM15.5 4.3845C15.7448 4.3845 15.9535 4.29833 16.126 4.126C16.2983 3.9535 16.3845 3.74483 16.3845 3.5C16.3845 3.25517 16.2983 3.0465 16.126 2.874C15.9535 2.70167 15.7448 2.6155 15.5 2.6155C15.2552 2.6155 15.0465 2.70167 14.874 2.874C14.7017 3.0465 14.6155 3.25517 14.6155 3.5C14.6155 3.74483 14.7017 3.9535 14.874 4.126C15.0465 4.29833 15.2552 4.3845 15.5 4.3845ZM3.5 7.3845C3.74483 7.3845 3.9535 7.29833 4.126 7.126C4.29833 6.9535 4.3845 6.74483 4.3845 6.5C4.3845 6.25517 4.29833 6.0465 4.126 5.874C3.9535 5.70167 3.74483 5.6155 3.5 5.6155C3.25517 5.6155 3.0465 5.70167 2.874 5.874C2.70167 6.0465 2.6155 6.25517 2.6155 6.5C2.6155 6.74483 2.70167 6.9535 2.874 7.126C3.0465 7.29833 3.25517 7.3845 3.5 7.3845ZM6.5 7.3845C6.74483 7.3845 6.9535 7.29833 7.126 7.126C7.29833 6.9535 7.3845 6.74483 7.3845 6.5C7.3845 6.25517 7.29833 6.0465 7.126 5.874C6.9535 5.70167 6.74483 5.6155 6.5 5.6155C6.25517 5.6155 6.0465 5.70167 5.874 5.874C5.70167 6.0465 5.6155 6.25517 5.6155 6.5C5.6155 6.74483 5.70167 6.9535 5.874 7.126C6.0465 7.29833 6.25517 7.3845 6.5 7.3845ZM9.5 7.3845C9.74483 7.3845 9.9535 7.29833 10.126 7.126C10.2983 6.9535 10.3845 6.74483 10.3845 6.5C10.3845 6.25517 10.2983 6.0465 10.126 5.874C9.9535 5.70167 9.74483 5.6155 9.5 5.6155C9.25517 5.6155 9.0465 5.70167 8.874 5.874C8.70167 6.0465 8.6155 6.25517 8.6155 6.5C8.6155 6.74483 8.70167 6.9535 8.874 7.126C9.0465 7.29833 9.25517 7.3845 9.5 7.3845ZM12.5 7.3845C12.7448 7.3845 12.9535 7.29833 13.126 7.126C13.2983 6.9535 13.3845 6.74483 13.3845 6.5C13.3845 6.25517 13.2983 6.0465 13.126 5.874C12.9535 5.70167 12.7448 5.6155 12.5 5.6155C12.2552 5.6155 12.0465 5.70167 11.874 5.874C11.7017 6.0465 11.6155 6.25517 11.6155 6.5C11.6155 6.74483 11.7017 6.9535 11.874 7.126C12.0465 7.29833 12.2552 7.3845 12.5 7.3845ZM15.5 7.3845C15.7448 7.3845 15.9535 7.29833 16.126 7.126C16.2983 6.9535 16.3845 6.74483 16.3845 6.5C16.3845 6.25517 16.2983 6.0465 16.126 5.874C15.9535 5.70167 15.7448 5.6155 15.5 5.6155C15.2552 5.6155 15.0465 5.70167 14.874 5.874C14.7017 6.0465 14.6155 6.25517 14.6155 6.5C14.6155 6.74483 14.7017 6.9535 14.874 7.126C15.0465 7.29833 15.2552 7.3845 15.5 7.3845Z" fill="#222222"/>
</svg>
