<svg width="18" height="18" viewBox="0 0 18 18" fill="none" xmlns="http://www.w3.org/2000/svg">
<path d="M2.75 0C1.24011 0 0 1.24011 0 2.75V15.25C0 16.7599 1.24011 18 2.75 18H15.25C16.7599 18 18 16.7599 18 15.25V2.75C18 1.24011 16.7599 0 15.25 0H2.75ZM2.75 1.5H15.25C15.9491 1.5 16.5 2.05089 16.5 2.75V15.25C16.5 15.9491 15.9491 16.5 15.25 16.5H2.75C2.05089 16.5 1.5 15.9491 1.5 15.25V2.75C1.5 2.05089 2.05089 1.5 2.75 1.5ZM4.75 3.5C4.41848 3.5 4.10054 3.6317 3.86612 3.86612C3.6317 4.10054 3.5 4.41848 3.5 4.75C3.5 5.08152 3.6317 5.39946 3.86612 5.63388C4.10054 5.8683 4.41848 6 4.75 6C5.08152 6 5.39946 5.8683 5.63388 5.63388C5.8683 5.39946 6 5.08152 6 4.75C6 4.41848 5.8683 4.10054 5.63388 3.86612C5.39946 3.6317 5.08152 3.5 4.75 3.5ZM4 7C3.7235 7 3.5 7.2235 3.5 7.5V14C3.5 14.2765 3.7235 14.5 4 14.5H5.5C5.7765 14.5 6 14.2765 6 14V7.5C6 7.2235 5.7765 7 5.5 7H4ZM7.5 7C7.2235 7 7 7.2235 7 7.5V14C7 14.2765 7.2235 14.5 7.5 14.5H9C9.2765 14.5 9.5 14.2765 9.5 14V10.25C9.5 9.5605 10.0605 9 10.75 9C11.4395 9 12 9.5605 12 10.25V14C12 14.2765 12.2235 14.5 12.5 14.5H14C14.2765 14.5 14.5 14.2765 14.5 14V10C14.5 8.3455 13.1545 7 11.5 7C10.731 7 10.0315 7.29301 9.5 7.77051V7.5C9.5 7.2235 9.2765 7 9 7H7.5Z" fill="white"/>
</svg>
