<svg width="24" height="24" viewBox="0 0 24 24" fill="none" xmlns="http://www.w3.org/2000/svg">
<mask id="mask0_40000204_72666" style="mask-type:alpha" maskUnits="userSpaceOnUse" x="0" y="0" width="24" height="24">
<rect width="24" height="24" fill="#D9D9D9"/>
</mask>
<g mask="url(#mask0_40000204_72666)">
<path d="M12.8652 14.75H6.86523C6.65273 14.75 6.47465 14.6781 6.33098 14.5343C6.18715 14.3904 6.11523 14.2122 6.11523 13.9998C6.11523 13.7871 6.18715 13.609 6.33098 13.4655C6.47465 13.3218 6.65273 13.25 6.86523 13.25H12.8652C13.0777 13.25 13.2558 13.3219 13.3995 13.4658C13.5433 13.6096 13.6152 13.7878 13.6152 14.0003C13.6152 14.2129 13.5433 14.391 13.3995 14.5345C13.2558 14.6782 13.0777 14.75 12.8652 14.75ZM12.8652 10.75H6.86523C6.65273 10.75 6.47465 10.6781 6.33098 10.5342C6.18715 10.3904 6.11523 10.2122 6.11523 9.99975C6.11523 9.78708 6.18715 9.609 6.33098 9.4655C6.47465 9.32183 6.65273 9.25 6.86523 9.25H12.8652C13.0777 9.25 13.2558 9.32192 13.3995 9.46575C13.5433 9.60958 13.6152 9.78775 13.6152 10.0003C13.6152 10.2129 13.5433 10.391 13.3995 10.5345C13.2558 10.6782 13.0777 10.75 12.8652 10.75ZM4.30775 19.5C3.80258 19.5 3.375 19.325 3.025 18.975C2.675 18.625 2.5 18.1974 2.5 17.6923V6.30775C2.5 5.80258 2.675 5.375 3.025 5.025C3.375 4.675 3.80258 4.5 4.30775 4.5H19.6923C20.1974 4.5 20.625 4.675 20.975 5.025C21.325 5.375 21.5 5.80258 21.5 6.30775V17.6923C21.5 18.1974 21.325 18.625 20.975 18.975C20.625 19.325 20.1974 19.5 19.6923 19.5H4.30775ZM4.30775 18H19.6923C19.7693 18 19.8398 17.9679 19.9038 17.9038C19.9679 17.8398 20 17.7692 20 17.6923V6.30775C20 6.23075 19.9679 6.16025 19.9038 6.09625C19.8398 6.03208 19.7693 6 19.6923 6H4.30775C4.23075 6 4.16025 6.03208 4.09625 6.09625C4.03208 6.16025 4 6.23075 4 6.30775V17.6923C4 17.7692 4.03208 17.8398 4.09625 17.9038C4.16025 17.9679 4.23075 18 4.30775 18Z" fill="#222222"/>
<path d="M16.2347 8.17747C16.4039 8.00781 16.6139 7.92297 16.8647 7.92297C17.1156 7.92297 17.3258 8.00764 17.4955 8.17697C17.6652 8.34614 17.75 8.55614 17.75 8.80697C17.75 9.05781 17.6654 9.26806 17.4963 9.43772C17.3271 9.60739 17.1171 9.69222 16.8663 9.69222C16.6154 9.69222 16.4052 9.60764 16.2355 9.43847C16.0658 9.26914 15.981 9.05906 15.981 8.80822C15.981 8.55739 16.0656 8.34714 16.2347 8.17747Z" fill="#222222"/>
<path d="M16.331 11.1002C16.4745 10.9564 16.6526 10.8845 16.8652 10.8845C17.0777 10.8845 17.2559 10.9564 17.3997 11.1002C17.5436 11.2439 17.6155 11.422 17.6155 11.6345V15.327C17.6155 15.5395 17.5437 15.7176 17.4 15.8612C17.2565 16.0051 17.0784 16.077 16.8658 16.077C16.6533 16.077 16.4751 16.0051 16.3313 15.8612C16.1874 15.7176 16.1155 15.5395 16.1155 15.327V11.6345C16.1155 11.422 16.1873 11.2439 16.331 11.1002Z" fill="#222222"/>
</g>
</svg>
