<svg width="20" height="17" viewBox="0 0 20 17" fill="none" xmlns="http://www.w3.org/2000/svg">
<path d="M0.75 16.4428C0.5375 16.4428 0.359417 16.3709 0.21575 16.2271C0.0719166 16.0832 0 15.9051 0 15.6926C0 15.4799 0.0719166 15.3018 0.21575 15.1583C0.359417 15.0147 0.5375 14.9428 0.75 14.9428H4.673V12.6928H1.75C1.5375 12.6928 1.35942 12.6209 1.21575 12.4771C1.07192 12.3332 1 12.1551 1 11.9426C1 11.7299 1.07192 11.5518 1.21575 11.4083C1.35942 11.2647 1.5375 11.1928 1.75 11.1928H4.673V8.94282H2.8C2.5875 8.94282 2.40942 8.87091 2.26575 8.72707C2.12192 8.58324 2.05 8.40507 2.05 8.19257C2.05 7.97991 2.12192 7.80182 2.26575 7.65832C2.40942 7.51466 2.5875 7.44282 2.8 7.44282H4.673V4.51207L3.1385 1.16407C3.05383 0.978072 3.04608 0.786405 3.11525 0.589072C3.18458 0.391572 3.31217 0.250573 3.498 0.166073C3.684 0.0814059 3.87567 0.0736561 4.073 0.142823C4.2705 0.212156 4.4115 0.339739 4.496 0.525573L6.31525 4.44282H18.0308L16.4385 1.06782C16.3538 0.881989 16.3461 0.690323 16.4153 0.492823C16.4846 0.295489 16.6122 0.15449 16.798 0.0698231C16.9838 -0.0148435 17.1755 -0.0225113 17.373 0.046822C17.5705 0.115989 17.7115 0.24349 17.796 0.429323L19.4923 4.08132C19.5524 4.20116 19.5976 4.32466 19.6278 4.45182C19.6579 4.57899 19.673 4.70999 19.673 4.84482V14.9236C19.673 15.3454 19.5253 15.7041 19.2298 15.9996C18.9343 16.2951 18.5756 16.4428 18.1538 16.4428H0.75ZM10.173 9.69282H14.173C14.3855 9.69282 14.5637 9.62091 14.7075 9.47707C14.8512 9.33324 14.923 9.15507 14.923 8.94257C14.923 8.72991 14.8512 8.55182 14.7075 8.40832C14.5637 8.26466 14.3855 8.19282 14.173 8.19282H10.173C9.9605 8.19282 9.78242 8.26474 9.63875 8.40857C9.49492 8.55241 9.423 8.73057 9.423 8.94307C9.423 9.15574 9.49492 9.33382 9.63875 9.47732C9.78242 9.62099 9.9605 9.69282 10.173 9.69282ZM6.173 14.9428H18.173V5.94282H6.173V14.9428Z" fill="#222222"/>
</svg>
