<svg width="10" height="13" viewBox="0 0 10 13" fill="none" xmlns="http://www.w3.org/2000/svg">
<path d="M1.20517 12.6667C0.868389 12.6667 0.583333 12.55 0.35 12.3167C0.116667 12.0833 0 11.7983 0 11.4615V3.87183C0 3.53506 0.116667 3.25 0.35 3.01667C0.583333 2.78333 0.868389 2.66667 1.20517 2.66667H2.5V2.5C2.5 1.80944 2.744 1.22011 3.232 0.732C3.72011 0.244 4.30944 0 5 0C5.69056 0 6.27989 0.244 6.768 0.732C7.256 1.22011 7.5 1.80944 7.5 2.5V2.66667H8.79483C9.13161 2.66667 9.41667 2.78333 9.65 3.01667C9.88333 3.25 10 3.53506 10 3.87183V11.4615C10 11.7983 9.88333 12.0833 9.65 12.3167C9.41667 12.55 9.13161 12.6667 8.79483 12.6667H1.20517ZM1.20517 11.6667H8.79483C8.84617 11.6667 8.89317 11.6453 8.93583 11.6025C8.97861 11.5598 9 11.5128 9 11.4615V3.87183C9 3.8205 8.97861 3.7735 8.93583 3.73083C8.89317 3.68806 8.84617 3.66667 8.79483 3.66667H7.5V5.16667C7.5 5.30856 7.45211 5.42733 7.35633 5.523C7.26067 5.61878 7.14189 5.66667 7 5.66667C6.85811 5.66667 6.73933 5.61878 6.64367 5.523C6.54789 5.42733 6.5 5.30856 6.5 5.16667V3.66667H3.5V5.16667C3.5 5.30856 3.45211 5.42733 3.35633 5.523C3.26067 5.61878 3.14189 5.66667 3 5.66667C2.85811 5.66667 2.73933 5.61878 2.64367 5.523C2.54789 5.42733 2.5 5.30856 2.5 5.16667V3.66667H1.20517C1.15383 3.66667 1.10683 3.68806 1.06417 3.73083C1.02139 3.7735 1 3.8205 1 3.87183V11.4615C1 11.5128 1.02139 11.5598 1.06417 11.6025C1.10683 11.6453 1.15383 11.6667 1.20517 11.6667ZM3.5 2.66667H6.5V2.5C6.5 2.08211 6.3545 1.72761 6.0635 1.4365C5.7725 1.1455 5.418 1 5 1C4.582 1 4.2275 1.1455 3.9365 1.4365C3.6455 1.72761 3.5 2.08211 3.5 2.5V2.66667Z" fill="#299AA3"/>
</svg>
