<svg width="15" height="19" viewBox="0 0 15 19" fill="none" xmlns="http://www.w3.org/2000/svg">
<path d="M1.80775 19C1.30258 19 0.875 18.825 0.525 18.475C0.175 18.125 0 17.6974 0 17.1923V5.80775C0 5.30258 0.175 4.875 0.525 4.525C0.875 4.175 1.30258 4 1.80775 4H3.75V3.75C3.75 2.71417 4.116 1.83017 4.848 1.098C5.58017 0.366 6.46417 0 7.5 0C8.53583 0 9.41983 0.366 10.152 1.098C10.884 1.83017 11.25 2.71417 11.25 3.75V4H13.1923C13.6974 4 14.125 4.175 14.475 4.525C14.825 4.875 15 5.30258 15 5.80775V17.1923C15 17.6974 14.825 18.125 14.475 18.475C14.125 18.825 13.6974 19 13.1923 19H1.80775ZM1.80775 17.5H13.1923C13.2692 17.5 13.3398 17.4679 13.4038 17.4038C13.4679 17.3398 13.5 17.2693 13.5 17.1923V5.80775C13.5 5.73075 13.4679 5.66025 13.4038 5.59625C13.3398 5.53208 13.2692 5.5 13.1923 5.5H11.25V7.75C11.25 7.96283 11.1782 8.141 11.0345 8.2845C10.891 8.42817 10.7128 8.5 10.5 8.5C10.2872 8.5 10.109 8.42817 9.9655 8.2845C9.82183 8.141 9.75 7.96283 9.75 7.75V5.5H5.25V7.75C5.25 7.96283 5.17817 8.141 5.0345 8.2845C4.891 8.42817 4.71283 8.5 4.5 8.5C4.28717 8.5 4.109 8.42817 3.9655 8.2845C3.82183 8.141 3.75 7.96283 3.75 7.75V5.5H1.80775C1.73075 5.5 1.66025 5.53208 1.59625 5.59625C1.53208 5.66025 1.5 5.73075 1.5 5.80775V17.1923C1.5 17.2693 1.53208 17.3398 1.59625 17.4038C1.66025 17.4679 1.73075 17.5 1.80775 17.5ZM5.25 4H9.75V3.75C9.75 3.12317 9.53175 2.59142 9.09525 2.15475C8.65875 1.71825 8.127 1.5 7.5 1.5C6.873 1.5 6.34125 1.71825 5.90475 2.15475C5.46825 2.59142 5.25 3.12317 5.25 3.75V4Z" fill="#222222"/>
</svg>
