<svg width="13" height="13" viewBox="0 0 13 13" fill="none" xmlns="http://www.w3.org/2000/svg">
<path d="M6.41084 10.1827L3.16896 12.1377C3.04813 12.2083 2.92709 12.2379 2.80584 12.2267C2.68459 12.2154 2.57486 12.1746 2.47667 12.1042C2.37834 12.0336 2.30243 11.9415 2.24896 11.8277C2.19563 11.714 2.18709 11.5881 2.22334 11.4502L3.08396 7.76917L0.221877 5.29167C0.114932 5.19875 0.0468071 5.09111 0.0175016 4.96875C-0.0119429 4.84639 -0.00423455 4.7275 0.0406266 4.61208C0.0854877 4.49681 0.15014 4.40257 0.234585 4.32937C0.319029 4.25618 0.434446 4.20833 0.580835 4.18583L4.35792 3.85583L5.82438 0.379791C5.87771 0.250486 5.95861 0.15486 6.06709 0.0929159C6.17556 0.0309714 6.29014 0 6.41084 0C6.53153 0 6.64611 0.0309714 6.75459 0.0929159C6.86306 0.15486 6.94396 0.250486 6.99729 0.379791L8.46375 3.85583L12.2408 4.18583C12.3872 4.20833 12.5026 4.25618 12.5871 4.32937C12.6715 4.40257 12.7362 4.49681 12.781 4.61208C12.8259 4.7275 12.8336 4.84639 12.8042 4.96875C12.7749 5.09111 12.7067 5.19875 12.5998 5.29167L9.73771 7.76917L10.5983 11.4502C10.6346 11.5881 10.626 11.714 10.5727 11.8277C10.5192 11.9415 10.4433 12.0336 10.345 12.1042C10.2468 12.1746 10.1371 12.2154 10.0158 12.2267C9.89459 12.2379 9.77354 12.2083 9.65271 12.1377L6.41084 10.1827Z" fill="#222222"/>
</svg>
