<svg width="20" height="19" viewBox="0 0 20 19" fill="none" xmlns="http://www.w3.org/2000/svg">
<path d="M1.80775 12C1.33208 12 0.911917 11.8176 0.54725 11.4528C0.182417 11.0881 0 10.6679 0 10.1923V8.577C0 8.472 0.0135 8.3595 0.0405 8.2395C0.0673333 8.11967 0.0974168 8.00775 0.13075 7.90375L2.99675 1.14125C3.13992 0.821417 3.38008 0.55125 3.71725 0.33075C4.05442 0.11025 4.40625 0 4.77275 0H15.2885V12L9.47125 17.7673C9.27242 17.9659 9.04225 18.0845 8.78075 18.123C8.51925 18.1615 8.26867 18.1167 8.029 17.9885C7.78917 17.8602 7.6135 17.6781 7.502 17.4423C7.3905 17.2064 7.36675 16.9622 7.43075 16.7095L8.50775 12H1.80775ZM13.7885 11.3615V1.5H4.76925C4.69875 1.5 4.62667 1.51925 4.553 1.55775C4.47917 1.59625 4.423 1.66033 4.3845 1.75L1.5 8.5V10.1923C1.5 10.2821 1.52883 10.3558 1.5865 10.4135C1.64417 10.4712 1.71792 10.5 1.80775 10.5H10.4038L9.15 15.9808L13.7885 11.3615ZM18.1923 0C18.6894 0 19.115 0.177 19.469 0.531C19.823 0.885 20 1.31058 20 1.80775V10.1923C20 10.6894 19.823 11.115 19.469 11.469C19.115 11.823 18.6894 12 18.1923 12H15.2885V10.5H18.1923C18.2821 10.5 18.3558 10.4712 18.4135 10.4135C18.4712 10.3558 18.5 10.2821 18.5 10.1923V1.80775C18.5 1.71792 18.4712 1.64417 18.4135 1.5865C18.3558 1.52883 18.2821 1.5 18.1923 1.5H15.2885V0H18.1923Z" fill="#222222"/>
</svg>
