<svg width="20" height="19" viewBox="0 0 20 19" fill="none" xmlns="http://www.w3.org/2000/svg">
<path d="M18.1923 6.13634C18.6679 6.13634 19.0881 6.31876 19.4527 6.68359C19.8176 7.04826 20 7.46842 20 7.94409V9.55934C20 9.66434 19.9865 9.77684 19.9595 9.89684C19.9327 10.0167 19.9026 10.1286 19.8693 10.2326L17.0033 16.9951C16.8601 17.3149 16.6199 17.5851 16.2828 17.8056C15.9456 18.0261 15.5938 18.1363 15.2273 18.1363H4.7115V6.13634L10.5288 0.36909C10.7276 0.170423 10.9578 0.0518402 11.2193 0.0133402C11.4808 -0.0251598 11.7313 0.0196737 11.971 0.14784C12.2108 0.276174 12.3865 0.458256 12.498 0.69409C12.6095 0.929923 12.6333 1.17417 12.5693 1.42684L11.4923 6.13634H18.1923ZM6.2115 6.77484V16.6363H15.2308C15.3013 16.6363 15.3733 16.6171 15.447 16.5786C15.5208 16.5401 15.577 16.476 15.6155 16.3863L18.5 9.63634V7.94409C18.5 7.85426 18.4712 7.78051 18.4135 7.72284C18.3558 7.66517 18.2821 7.63634 18.1923 7.63634H9.59625L10.85 2.15559L6.2115 6.77484ZM1.80775 18.1363C1.31058 18.1363 0.885 17.9593 0.531 17.6053C0.177 17.2513 0 16.8258 0 16.3286V7.94409C0 7.44692 0.177 7.02134 0.531 6.66734C0.885 6.31334 1.31058 6.13634 1.80775 6.13634H4.7115V7.63634H1.80775C1.71792 7.63634 1.64417 7.66517 1.5865 7.72284C1.52883 7.78051 1.5 7.85426 1.5 7.94409V16.3286C1.5 16.4184 1.52883 16.4922 1.5865 16.5498C1.64417 16.6075 1.71792 16.6363 1.80775 16.6363H4.7115V18.1363H1.80775Z" fill="#222222"/>
</svg>
