<svg width="16" height="16" viewBox="0 0 16 16" fill="none" xmlns="http://www.w3.org/2000/svg">
<path d="M14.1667 8.83329V9.49996C14.1667 10.6045 13.2713 11.5 12.1667 11.5H10.1667C9.43033 11.5 8.83337 10.903 8.83337 10.1666C8.83337 9.43025 9.43033 8.83329 10.1667 8.83329C10.9031 8.83329 11.5 9.43025 11.5 10.1666V11.8333C11.5 12.9379 10.6046 13.8333 9.50004 13.8333H1.83337M4.50004 11.5H5.83337C6.56975 11.5 7.16671 10.903 7.16671 10.1666C7.16671 9.43025 6.56975 8.83329 5.83337 8.83329C5.09699 8.83329 4.50004 9.43025 4.50004 10.1666V11.5ZM4.50004 11.5H3.83337C2.7288 11.5 1.83337 10.6045 1.83337 9.49996V2.16663M4.50004 2.16663V4.99996C4.50004 6.10453 5.39547 6.99996 6.50004 6.99996H8.83337C9.93794 6.99996 10.8334 6.10453 10.8334 4.99996V2.16663M14.1667 6.83329H12.5M7.66671 3.16663V3.49996" stroke="#222222" stroke-linecap="round"/>
</svg>
