<svg width="17" height="17" viewBox="0 0 17 17" fill="none" xmlns="http://www.w3.org/2000/svg">
<path d="M16.1667 9.08333V10.4167C16.1667 11.5212 15.2712 12.4167 14.1667 12.4167H11.1667C10.2462 12.4167 9.5 11.6705 9.5 10.75C9.5 9.82953 10.2462 9.08333 11.1667 9.08333C12.0871 9.08333 12.8333 9.82953 12.8333 10.75V13.3333C12.8333 14.4379 11.9379 15.3333 10.8333 15.3333H0.75M4.08333 12.4167H5.75C6.67047 12.4167 7.41667 11.6705 7.41667 10.75C7.41667 9.82953 6.67047 9.08333 5.75 9.08333C4.82953 9.08333 4.08333 9.82952 4.08333 10.75V12.4167ZM4.08333 12.4167H2.75C1.64543 12.4167 0.75 11.5212 0.75 10.4167V0.75M4.08333 0.75V4.79167C4.08333 5.89624 4.97876 6.79167 6.08333 6.79167H10C11.1046 6.79167 12 5.89624 12 4.79167V0.75M16.1667 6.58333H14.0833M8.04167 2V2.41667" stroke="#0058CC" stroke-width="1.5" stroke-linecap="round"/>
</svg>
