<svg width="18" height="18" viewBox="0 0 18 18" fill="none" xmlns="http://www.w3.org/2000/svg">
<path d="M2.75 0C1.24011 0 0 1.24011 0 2.75V15.25C0 16.7599 1.24011 18 2.75 18H15.25C16.7599 18 18 16.7599 18 15.25V2.75C18 1.24011 16.7599 0 15.25 0H2.75ZM2.75 1.5H15.25C15.9491 1.5 16.5 2.05089 16.5 2.75V15.25C16.5 15.9491 15.9491 16.5 15.25 16.5H2.75C2.05089 16.5 1.5 15.9491 1.5 15.25V2.75C1.5 2.05089 2.05089 1.5 2.75 1.5ZM7.26953 5.5C7.12511 5.49615 6.97755 5.53412 6.84668 5.61719C6.49768 5.83969 6.39519 6.30284 6.61719 6.65234L8.11133 9L6.61719 11.3477C6.39519 11.6972 6.49768 12.1603 6.84668 12.3828C6.97168 12.4618 7.11102 12.5 7.24902 12.5C7.49652 12.5 7.74031 12.3773 7.88281 12.1533L9 10.3975L10.1172 12.1523C10.2607 12.3768 10.5035 12.5 10.751 12.5C10.889 12.5 11.0278 12.4623 11.1523 12.3828C11.5013 12.1603 11.6048 11.6962 11.3828 11.3467L9.88965 9L11.3828 6.65332C11.6048 6.30382 11.5013 5.83969 11.1523 5.61719C10.8038 5.39519 10.3402 5.49766 10.1172 5.84766L9 7.60254L7.88281 5.84668C7.74375 5.62793 7.51023 5.50642 7.26953 5.5Z" fill="white"/>
</svg>
