<svg width="218" height="250" viewBox="0 0 218 250" fill="none" xmlns="http://www.w3.org/2000/svg">
<g clip-path="url(#clip0_40000204_70202)">
<path d="M218 54.2391V201.978C218 223.457 203.667 242.321 182.902 248.179C178.586 249.402 174.155 250 169.746 250C161.478 250 153.27 247.886 145.946 243.75L135.868 238.065C119.197 228.663 98.7867 228.668 82.1206 238.065L72.049 243.745C60.822 250.082 47.5131 251.674 35.0926 248.168C24.7103 245.239 15.9358 239.06 9.76095 230.924C3.58065 222.793 0 212.707 0 201.967V54.2391C0 29.9728 16.1919 8.66848 39.6488 2.05435C44.5047 0.690217 49.5024 0 54.5055 0C59.5086 0 64.5008 0.690217 69.3567 2.05435L94.1378 9.03804C103.85 11.7772 114.134 11.7772 123.846 9.03804L148.643 2.05435C158.355 -0.684783 168.639 -0.684783 178.351 2.05435C190.08 5.36413 199.993 12.337 206.975 21.5217C213.951 30.7065 218 42.1033 218 54.2337V54.2391Z" fill="white"/>
<path d="M163.5 54.4945L138.73 61.4782C129.056 64.2065 119.055 65.5924 109 65.5924C98.9448 65.5924 88.9441 64.2065 79.2703 61.4782L54.5001 54.4945C51.6061 53.6739 49.9221 50.6739 50.7396 47.7989C51.5625 44.9184 54.5764 43.2445 57.4703 44.0597L82.2406 51.0434C90.9497 53.5 99.9531 54.75 109 54.75C118.047 54.75 127.05 53.5 135.754 51.0434L160.524 44.0597C163.424 43.2391 166.438 44.9184 167.255 47.7989C168.078 50.6793 166.394 53.6793 163.5 54.4945Z" fill="#009975"/>
</g>
<defs>
<clipPath id="clip0_40000204_70202">
<rect width="218" height="250" fill="white"/>
</clipPath>
</defs>
</svg>
